<svg width="97" height="16" viewBox="0 0 97 16" fill="none" xmlns="http://www.w3.org/2000/svg">
<path d="M7.45816 1.19848C7.77942 0.209758 9.1782 0.209759 9.49945 1.19848L10.6473 4.73114C10.791 5.17331 11.203 5.47269 11.6679 5.47269H15.3824C16.422 5.47269 16.8542 6.80301 16.0132 7.41407L13.0081 9.59737C12.632 9.87065 12.4746 10.355 12.6183 10.7972L13.7661 14.3299C14.0874 15.3186 12.9557 16.1408 12.1147 15.5297L9.1096 13.3464C8.73347 13.0731 8.22415 13.0731 7.84801 13.3464L4.84295 15.5297C4.0019 16.1408 2.87026 15.3186 3.19151 14.3299L4.33935 10.7972C4.48302 10.355 4.32563 9.87065 3.94949 9.59737L0.944434 7.41407C0.103375 6.80301 0.535622 5.47269 1.57523 5.47269H5.28969C5.75461 5.47269 6.16666 5.17331 6.31033 4.73114L7.45816 1.19848Z" fill="#F59E0B"/>
<path d="M27.4157 1.19848C27.7369 0.209758 29.1357 0.209759 29.457 1.19848L30.6048 4.73114C30.7485 5.17331 31.1605 5.47269 31.6255 5.47269H35.3399C36.3795 5.47269 36.8118 6.80301 35.9707 7.41407L32.9656 9.59737C32.5895 9.87065 32.4321 10.355 32.5758 10.7972L33.7236 14.3299C34.0449 15.3186 32.9132 16.1408 32.0722 15.5297L29.0671 13.3464C28.691 13.0731 28.1817 13.0731 27.8055 13.3464L24.8005 15.5297C23.9594 16.1408 22.8278 15.3186 23.149 14.3299L24.2969 10.7972C24.4405 10.355 24.2831 9.87065 23.907 9.59737L20.902 7.41407C20.0609 6.80301 20.4931 5.47269 21.5327 5.47269H25.2472C25.7121 5.47269 26.1242 5.17331 26.2679 4.73114L27.4157 1.19848Z" fill="#F59E0B"/>
<path d="M47.3732 1.19848C47.6945 0.209758 49.0932 0.209759 49.4145 1.19848L50.5623 4.73114C50.706 5.17331 51.118 5.47269 51.583 5.47269H55.2974C56.337 5.47269 56.7693 6.80301 55.9282 7.41407L52.9232 9.59737C52.547 9.87065 52.3896 10.355 52.5333 10.7972L53.6811 14.3299C54.0024 15.3186 52.8708 16.1408 52.0297 15.5297L49.0246 13.3464C48.6485 13.0731 48.1392 13.0731 47.7631 13.3464L44.758 15.5297C43.9169 16.1408 42.7853 15.3186 43.1066 14.3299L44.2544 10.7972C44.3981 10.355 44.2407 9.87065 43.8645 9.59737L40.8595 7.41407C40.0184 6.80301 40.4507 5.47269 41.4903 5.47269H45.2047C45.6697 5.47269 46.0817 5.17331 46.2254 4.73114L47.3732 1.19848Z" fill="#F59E0B"/>
<path d="M67.3307 1.19848C67.652 0.209758 69.0508 0.209759 69.372 1.19848L70.5198 4.73114C70.6635 5.17331 71.0756 5.47269 71.5405 5.47269H75.2549C76.2946 5.47269 76.7268 6.80301 75.8857 7.41407L72.8807 9.59737C72.5045 9.87065 72.3472 10.355 72.4908 10.7972L73.6387 14.3299C73.9599 15.3186 72.8283 16.1408 71.9872 15.5297L68.9822 13.3464C68.606 13.0731 68.0967 13.0731 67.7206 13.3464L64.7155 15.5297C63.8745 16.1408 62.7428 15.3186 63.0641 14.3299L64.2119 10.7972C64.3556 10.355 64.1982 9.87065 63.8221 9.59737L60.817 7.41407C59.9759 6.80301 60.4082 5.47269 61.4478 5.47269H65.1622C65.6272 5.47269 66.0392 5.17331 66.1829 4.73114L67.3307 1.19848Z" fill="#F59E0B"/>
<path d="M87.2882 1.19848C87.6095 0.209758 89.0083 0.209759 89.3295 1.19848L90.4774 4.73114C90.621 5.17331 91.0331 5.47269 91.498 5.47269H95.2125C96.2521 5.47269 96.6843 6.80301 95.8433 7.41407L92.8382 9.59737C92.4621 9.87065 92.3047 10.355 92.4483 10.7972L93.5962 14.3299C93.9174 15.3186 92.7858 16.1408 91.9447 15.5297L88.9397 13.3464C88.5635 13.0731 88.0542 13.0731 87.6781 13.3464L84.673 15.5297C83.832 16.1408 82.7003 15.3186 83.0216 14.3299L84.1694 10.7972C84.3131 10.355 84.1557 9.87065 83.7796 9.59737L80.7745 7.41407C79.9335 6.80301 80.3657 5.47269 81.4053 5.47269H85.1198C85.5847 5.47269 85.9967 5.17331 86.1404 4.73114L87.2882 1.19848Z" fill="#F59E0B"/>
</svg>
