<svg width="124" height="31" viewBox="0 0 124 31" fill="none" xmlns="http://www.w3.org/2000/svg">
<path d="M32.8286 10.701H45.2721V13.0175H40.3726V26.076H37.6871V13.0175H32.8081L32.8286 10.701ZM44.7391 14.9445H47.0351V17.097H47.0761C47.1581 16.7895 47.3016 16.5025 47.5066 16.2155C47.7116 15.9285 47.9576 15.662 48.2651 15.4365C48.5521 15.1905 48.8801 15.006 49.2491 14.8625C49.5976 14.719 49.9666 14.637 50.3356 14.637C50.6226 14.637 50.8276 14.6575 50.9301 14.6575C51.0326 14.678 51.1556 14.6985 51.2581 14.6985V17.056C51.0941 17.015 50.9096 16.9945 50.7251 16.974C50.5406 16.9535 50.3766 16.933 50.1921 16.933C49.7821 16.933 49.3926 17.015 49.0236 17.179C48.6546 17.343 48.3471 17.589 48.0601 17.8965C47.7936 18.2245 47.5681 18.614 47.4041 19.0855C47.2401 19.557 47.1581 20.1105 47.1581 20.7255V26.0145H44.6981L44.7391 14.9445ZM62.5331 26.076H60.1141V24.518H60.0731C59.7656 25.092 59.3146 25.5225 58.7201 25.871C58.1256 26.2195 57.5106 26.3835 56.8956 26.3835C55.4401 26.3835 54.3741 26.035 53.7181 25.297C53.0621 24.5795 52.7341 23.4725 52.7341 22.017V14.9445H55.1941V21.771C55.1941 22.755 55.3786 23.452 55.7681 23.8415C56.1371 24.2515 56.6701 24.4565 57.3466 24.4565C57.8591 24.4565 58.2896 24.3745 58.6381 24.2105C58.9866 24.0465 59.2736 23.8415 59.4786 23.575C59.7041 23.3085 59.8476 22.9805 59.9501 22.6115C60.0526 22.2425 60.0936 21.8325 60.0936 21.402V14.9445H62.5536V26.076H62.5331ZM66.7151 22.509C66.7971 23.2265 67.0636 23.7185 67.5351 24.026C68.0066 24.313 68.5806 24.4565 69.2366 24.4565C69.4621 24.4565 69.7286 24.436 70.0156 24.395C70.3026 24.354 70.5896 24.2925 70.8356 24.19C71.1021 24.0875 71.3071 23.944 71.4711 23.739C71.6351 23.534 71.7171 23.288 71.6966 22.9805C71.6761 22.673 71.5736 22.4065 71.3481 22.2015C71.1226 21.9965 70.8561 21.853 70.5281 21.7095C70.2001 21.5865 69.8106 21.484 69.3801 21.402C68.9496 21.32 68.5191 21.2175 68.0681 21.115C67.6171 21.0125 67.1661 20.8895 66.7356 20.746C66.3051 20.6025 65.9361 20.418 65.5876 20.1515C65.2596 19.9055 64.9726 19.598 64.7881 19.2085C64.5831 18.819 64.4806 18.368 64.4806 17.794C64.4806 17.179 64.6241 16.687 64.9316 16.277C65.2186 15.867 65.6081 15.539 66.0591 15.293C66.5101 15.047 67.0226 14.8625 67.5761 14.76C68.1296 14.6575 68.6626 14.6165 69.1546 14.6165C69.7286 14.6165 70.2821 14.678 70.7946 14.801C71.3071 14.924 71.7991 15.1085 72.2091 15.3955C72.6396 15.662 72.9881 16.031 73.2546 16.4615C73.5416 16.892 73.7056 17.425 73.7876 18.04H71.2251C71.1021 17.4455 70.8356 17.056 70.4256 16.851C69.9951 16.646 69.5236 16.5435 68.9701 16.5435C68.8061 16.5435 68.5806 16.564 68.3551 16.5845C68.1091 16.6255 67.9041 16.6665 67.6786 16.7485C67.4736 16.8305 67.2891 16.9535 67.1456 17.097C67.0021 17.2405 66.9201 17.4455 66.9201 17.6915C66.9201 17.999 67.0226 18.2245 67.2276 18.409C67.4326 18.5935 67.6991 18.737 68.0476 18.8805C68.3756 19.0035 68.7651 19.106 69.1956 19.188C69.6261 19.27 70.0771 19.3725 70.5281 19.475C70.9791 19.5775 71.4096 19.7005 71.8401 19.844C72.2706 19.9875 72.6601 20.172 72.9881 20.4385C73.3161 20.6845 73.6031 20.992 73.8081 21.361C74.0131 21.73 74.1156 22.2015 74.1156 22.7345C74.1156 23.3905 73.9721 23.944 73.6646 24.4155C73.3571 24.8665 72.9676 25.256 72.4961 25.543C72.0246 25.83 71.4711 26.035 70.8971 26.1785C70.3026 26.3015 69.7286 26.3835 69.1546 26.3835C68.4576 26.3835 67.8016 26.3015 67.2071 26.1375C66.6126 25.9735 66.0796 25.7275 65.6491 25.42C65.2186 25.092 64.8701 24.7025 64.6241 24.2105C64.3781 23.739 64.2346 23.165 64.2141 22.4885H66.6946V22.509H66.7151ZM74.8126 14.9445H76.6781V11.5825H79.1381V14.924H81.3521V16.7485H79.1381V22.6935C79.1381 22.96 79.1586 23.165 79.1791 23.37C79.1996 23.5545 79.2611 23.7185 79.3226 23.8415C79.4046 23.9645 79.5276 24.067 79.6711 24.1285C79.8351 24.19 80.0401 24.231 80.3271 24.231C80.4911 24.231 80.6756 24.231 80.8396 24.2105C81.0036 24.19 81.1881 24.1695 81.3521 24.1285V26.035C81.0856 26.076 80.8191 26.0965 80.5526 26.117C80.2861 26.158 80.0401 26.158 79.7531 26.158C79.0971 26.158 78.5846 26.0965 78.1951 25.9735C77.8056 25.8505 77.4981 25.666 77.2726 25.4405C77.0471 25.1945 76.9036 24.9075 76.8216 24.559C76.7396 24.2105 76.6986 23.78 76.6781 23.329V16.769H74.8126V14.9035V14.9445ZM83.0741 14.9445H85.3906V16.4615H85.4316C85.7801 15.8055 86.2516 15.3545 86.8666 15.0675C87.4816 14.7805 88.1376 14.637 88.8756 14.637C89.7571 14.637 90.5156 14.7805 91.1716 15.1085C91.8276 15.416 92.3606 15.826 92.7911 16.3795C93.2216 16.9125 93.5496 17.548 93.7546 18.2655C93.9596 18.983 94.0826 19.762 94.0826 20.5615C94.0826 21.32 93.9801 22.0375 93.7956 22.7345C93.5906 23.4315 93.3036 24.067 92.9141 24.6C92.5246 25.133 92.0326 25.5635 91.4176 25.8915C90.8026 26.2195 90.1056 26.3835 89.2856 26.3835C88.9371 26.3835 88.5681 26.3425 88.2196 26.281C87.8711 26.2195 87.5226 26.117 87.1946 25.9735C86.8666 25.83 86.5591 25.6455 86.2926 25.42C86.0056 25.1945 85.7801 24.928 85.5956 24.641H85.5546V30.1965H83.0946V14.9445H83.0741ZM91.6636 20.5205C91.6636 20.0285 91.6021 19.5365 91.4586 19.065C91.3356 18.5935 91.1306 18.1835 90.8641 17.8145C90.5976 17.4455 90.2696 17.1585 89.9006 16.933C89.5111 16.7075 89.0601 16.605 88.5681 16.605C87.5431 16.605 86.7641 16.9535 86.2311 17.671C85.7186 18.3885 85.4521 19.352 85.4521 20.541C85.4521 21.115 85.5136 21.6275 85.6571 22.099C85.8006 22.5705 85.9851 22.9805 86.2721 23.329C86.5386 23.6775 86.8666 23.944 87.2561 24.149C87.6456 24.354 88.0761 24.4565 88.5886 24.4565C89.1626 24.4565 89.6136 24.3335 90.0031 24.108C90.3926 23.8825 90.7001 23.575 90.9666 23.2265C91.2126 22.8575 91.3971 22.4475 91.4996 21.976C91.6021 21.484 91.6636 21.0125 91.6636 20.5205ZM95.9891 10.701H98.4491V13.0175H95.9891V10.701ZM95.9891 14.9445H98.4491V26.076H95.9891V14.9445ZM100.643 10.701H103.103V26.076H100.643V10.701ZM110.606 26.3835C109.724 26.3835 108.925 26.24 108.228 25.9325C107.531 25.625 106.957 25.2355 106.465 24.723C105.993 24.2105 105.624 23.575 105.378 22.8575C105.132 22.14 104.989 21.3405 104.989 20.5C104.989 19.6595 105.112 18.8805 105.378 18.163C105.624 17.4455 105.993 16.8305 106.465 16.2975C106.936 15.785 107.531 15.375 108.228 15.088C108.925 14.801 109.724 14.637 110.606 14.637C111.487 14.637 112.287 14.7805 112.984 15.088C113.681 15.375 114.255 15.785 114.747 16.2975C115.218 16.81 115.587 17.4455 115.833 18.163C116.079 18.8805 116.223 19.6595 116.223 20.5C116.223 21.361 116.1 22.14 115.833 22.8575C115.567 23.575 115.218 24.19 114.747 24.723C114.275 25.2355 113.681 25.6455 112.984 25.9325C112.287 26.2195 111.508 26.3835 110.606 26.3835ZM110.606 24.436C111.139 24.436 111.631 24.313 112.02 24.0875C112.43 23.862 112.738 23.5545 113.004 23.1855C113.271 22.8165 113.455 22.386 113.578 21.935C113.701 21.4635 113.763 20.992 113.763 20.5C113.763 20.0285 113.701 19.557 113.578 19.0855C113.455 18.614 113.271 18.204 113.004 17.835C112.738 17.466 112.41 17.179 112.02 16.9535C111.61 16.728 111.139 16.605 110.606 16.605C110.073 16.605 109.581 16.728 109.191 16.9535C108.781 17.179 108.474 17.4865 108.207 17.835C107.941 18.204 107.756 18.614 107.633 19.0855C107.51 19.557 107.449 20.0285 107.449 20.5C107.449 20.992 107.51 21.4635 107.633 21.935C107.756 22.4065 107.941 22.8165 108.207 23.1855C108.474 23.5545 108.802 23.862 109.191 24.0875C109.601 24.3335 110.073 24.436 110.606 24.436ZM116.961 14.9445H118.826V11.5825H121.286V14.924H123.5V16.7485H121.286V22.6935C121.286 22.96 121.307 23.165 121.327 23.37C121.348 23.5545 121.409 23.7185 121.471 23.8415C121.553 23.9645 121.676 24.067 121.819 24.1285C121.983 24.19 122.188 24.231 122.475 24.231C122.639 24.231 122.824 24.231 122.988 24.2105C123.152 24.19 123.336 24.1695 123.5 24.1285V26.035C123.234 26.076 122.967 26.0965 122.701 26.117C122.434 26.158 122.188 26.158 121.901 26.158C121.245 26.158 120.733 26.0965 120.343 25.9735C119.954 25.8505 119.646 25.666 119.421 25.4405C119.195 25.1945 119.052 24.9075 118.97 24.559C118.888 24.2105 118.847 23.78 118.826 23.329V16.769H116.961V14.9035V14.9445Z" fill="black"/>
<path d="M29.9585 10.701H18.704L15.2395 0L11.7545 10.701L0.5 10.6805L9.60199 17.302L6.117 28.003L15.219 21.3815L24.321 28.003L20.8565 17.302L29.9585 10.701Z" fill="#00B67A"/>
<path d="M21.6357 19.721L20.8567 17.302L15.2397 21.3815L21.6357 19.721Z" fill="#005128"/>
</svg>
